<?xml version="1.0" encoding="UTF-8"?>
<!DOCTYPE svg PUBLIC "-//W3C//DTD SVG 1.1//EN"
    "http://www.w3.org/Graphics/SVG/1.1/DTD/svg11.dtd">
<svg xmlns="http://www.w3.org/2000/svg" xmlns:xlink="http://www.w3.org/1999/xlink" version="1.1" width="200.0" height="200.0" font-size="1" viewBox="0 0 200 200" stroke="rgb(0,0,0)" stroke-opacity="1"><g><g fill="rgb(0,0,0)" fill-opacity="0.0"><g stroke="rgb(0,0,0)" stroke-opacity="1.0" stroke-width="0.7423685817106696" stroke-linecap="butt" stroke-linejoin="miter" font-size="1.0em" stroke-miterlimit="10.0"><g stroke="rgb(211,211,211)" stroke-opacity="1.0" stroke-dasharray="1.855921454276674,1.855921454276674" stroke-dashoffset="0.0"><path d="M 101.01010101010101,127.02020202020202 h 40.4040404040404 " /><path d="M 60.6060606060606,147.22222222222223 h 80.8080808080808 " /><path d="M 101.01010101010101,167.42424242424244 v -60.6060606060606 " /><path d="M 60.6060606060606,167.42424242424244 v -20.2020202020202 " /></g><g fill="rgb(0,0,0)" fill-opacity="1.0"><g fill="rgb(0,0,0)" fill-opacity="1.0"><text transform="matrix(16.161616161616163,0.0,0.0,16.161616161616163,161.6161616161616,137.12121212121212)" dominant-baseline="middle" text-anchor="middle" stroke="none">offY</text></g></g><g><g><g><path d="M 141.4141414141414,147.22222222222223 l 8.392685218571654e-16,-13.706295112051848 " /></g><g stroke-width="0.0"><g fill="rgb(0,0,0)" fill-opacity="1.0"><g fill="rgb(0,0,0)" fill-opacity="1.0"><g fill="rgb(0,0,0)" fill-opacity="1.0"><path d="" /></g></g></g><g fill="rgb(0,0,0)" fill-opacity="1.0"><g fill="rgb(0,0,0)" fill-opacity="1.0"><g fill="rgb(0,0,0)" fill-opacity="1.0"><path d="" /></g></g></g></g><g stroke-width="0.0"><g fill="rgb(0,0,0)" fill-opacity="1.0"><g fill="rgb(0,0,0)" fill-opacity="1.0"><g fill="rgb(0,0,0)" fill-opacity="1.0"><path d="M 141.4141414141414,127.02020202020202 l 2.442388609094751,7.516899213595281 l -2.4423886090947513,-1.2840396796864872 l -2.4423886090947513,1.2840396796864868 Z" /></g></g></g><g fill="rgb(0,0,0)" fill-opacity="1.0"><g fill="rgb(0,0,0)" fill-opacity="1.0"><g fill="rgb(0,0,0)" fill-opacity="1.0"><path d="M 141.4141414141414,133.25306155411081 l -1.609587309172186e-17,0.26286555605956646 l 0.5,3.061616997868383e-17 l -0.5,-0.2628655560595665 l -1.609587309172186e-17,0.26286555605956646 l -0.5,-3.061616997868383e-17 Z" /></g></g></g></g></g></g><g fill="rgb(0,0,0)" fill-opacity="1.0"><g fill="rgb(0,0,0)" fill-opacity="1.0"><text transform="matrix(16.161616161616163,0.0,0.0,16.161616161616163,80.8080808080808,182.57575757575756)" dominant-baseline="middle" text-anchor="middle" stroke="none">offX</text></g></g><g><g><g><path d="M 60.6060606060606,167.42424242424244 h 33.90831531407205 " /></g><g stroke-width="0.0"><g fill="rgb(0,0,0)" fill-opacity="1.0"><g fill="rgb(0,0,0)" fill-opacity="1.0"><g fill="rgb(0,0,0)" fill-opacity="1.0"><path d="" /></g></g></g><g fill="rgb(0,0,0)" fill-opacity="1.0"><g fill="rgb(0,0,0)" fill-opacity="1.0"><g fill="rgb(0,0,0)" fill-opacity="1.0"><path d="" /></g></g></g></g><g stroke-width="0.0"><g fill="rgb(0,0,0)" fill-opacity="1.0"><g fill="rgb(0,0,0)" fill-opacity="1.0"><g fill="rgb(0,0,0)" fill-opacity="1.0"><path d="M 101.01010101010101,167.42424242424244 l -7.516899213595281,2.4423886090947513 l 1.284039679686487,-2.4423886090947513 l -1.284039679686487,-2.4423886090947513 Z" /></g></g></g><g fill="rgb(0,0,0)" fill-opacity="1.0"><g fill="rgb(0,0,0)" fill-opacity="1.0"><g fill="rgb(0,0,0)" fill-opacity="1.0"><path d="M 94.77724147619222,167.42424242424244 h -0.26286555605956646 v 0.5 l 0.26286555605956646,-0.5 h -0.26286555605956646 v -0.5 Z" /></g></g></g></g></g></g><g><g fill="rgb(255,0,0)" fill-opacity="1.0"><g fill="rgb(255,0,0)" fill-opacity="1.0"><g fill="rgb(255,0,0)" fill-opacity="1.0"><path d="M 161.6161616161616,66.41414141414143 h 20.2020202020202 v 20.2020202020202 h -20.2020202020202 v -20.2020202020202 Z" /></g></g></g><g fill="rgb(255,0,0)" fill-opacity="1.0"><g fill="rgb(255,0,0)" fill-opacity="1.0"><g fill="rgb(255,0,0)" fill-opacity="1.0"><path d="M 141.4141414141414,66.41414141414143 h 20.2020202020202 v 20.2020202020202 h -20.2020202020202 v -20.2020202020202 Z" /></g></g></g><g fill="rgb(255,0,0)" fill-opacity="1.0"><g fill="rgb(255,0,0)" fill-opacity="1.0"><g fill="rgb(255,0,0)" fill-opacity="1.0"><path d="M 121.2121212121212,66.41414141414143 h 20.2020202020202 v 20.2020202020202 h -20.2020202020202 v -20.2020202020202 Z" /></g></g></g><g fill="rgb(255,0,0)" fill-opacity="1.0"><g fill="rgb(255,0,0)" fill-opacity="1.0"><g fill="rgb(255,0,0)" fill-opacity="1.0"><path d="M 161.6161616161616,46.212121212121225 h 20.2020202020202 v 20.2020202020202 h -20.2020202020202 v -20.2020202020202 Z" /></g></g></g><g fill="rgb(255,0,0)" fill-opacity="1.0"><g fill="rgb(255,0,0)" fill-opacity="1.0"><g fill="rgb(255,0,0)" fill-opacity="1.0"><path d="M 141.4141414141414,46.212121212121225 h 20.2020202020202 v 20.2020202020202 h -20.2020202020202 v -20.2020202020202 Z" /></g></g></g><g fill="rgb(255,0,0)" fill-opacity="1.0"><g fill="rgb(255,0,0)" fill-opacity="1.0"><g fill="rgb(255,0,0)" fill-opacity="1.0"><path d="M 121.2121212121212,46.212121212121225 h 20.2020202020202 v 20.2020202020202 h -20.2020202020202 v -20.2020202020202 Z" /></g></g></g><g fill="rgb(255,0,0)" fill-opacity="1.0"><g fill="rgb(255,0,0)" fill-opacity="1.0"><g fill="rgb(255,0,0)" fill-opacity="1.0"><path d="M 161.6161616161616,26.010101010101025 h 20.2020202020202 v 20.2020202020202 h -20.2020202020202 v -20.2020202020202 Z" /></g></g></g><g fill="rgb(255,0,0)" fill-opacity="1.0"><g fill="rgb(255,0,0)" fill-opacity="1.0"><g fill="rgb(255,0,0)" fill-opacity="1.0"><path d="M 141.4141414141414,26.010101010101025 h 20.2020202020202 v 20.2020202020202 h -20.2020202020202 v -20.2020202020202 Z" /></g></g></g><g fill="rgb(255,0,0)" fill-opacity="1.0"><g fill="rgb(255,0,0)" fill-opacity="1.0"><g fill="rgb(255,0,0)" fill-opacity="1.0"><path d="M 121.2121212121212,26.010101010101025 h 20.2020202020202 v 20.2020202020202 h -20.2020202020202 v -20.2020202020202 Z" /></g></g></g></g><g><g fill="rgb(255,255,255)" fill-opacity="1.0"><g fill="rgb(255,255,255)" fill-opacity="1.0"><g fill="rgb(255,255,255)" fill-opacity="1.0"><path d="M 40.4040404040404,86.61616161616163 l -40.4040404040404,20.2020202020202 v -20.2020202020202 l 40.4040404040404,-20.2020202020202 v 20.2020202020202 Z" /></g></g></g><g fill="rgb(255,255,255)" fill-opacity="1.0"><g fill="rgb(255,255,255)" fill-opacity="1.0"><g fill="rgb(255,255,255)" fill-opacity="1.0"><path d="M 80.8080808080808,66.41414141414143 l -40.4040404040404,20.2020202020202 v -20.2020202020202 l 40.4040404040404,-20.2020202020202 v 20.2020202020202 Z" /></g></g></g><g fill="rgb(255,255,255)" fill-opacity="1.0"><g fill="rgb(255,255,255)" fill-opacity="1.0"><g fill="rgb(255,255,255)" fill-opacity="1.0"><path d="M 121.2121212121212,46.21212121212123 l -40.4040404040404,20.2020202020202 v -20.2020202020202 l 40.4040404040404,-20.2020202020202 v 20.2020202020202 Z" /></g></g></g><g fill="rgb(255,255,255)" fill-opacity="1.0"><g fill="rgb(255,255,255)" fill-opacity="1.0"><g fill="rgb(255,255,255)" fill-opacity="1.0"><path d="M 40.4040404040404,106.81818181818184 l -40.4040404040404,20.2020202020202 v -20.2020202020202 l 40.4040404040404,-20.2020202020202 v 20.2020202020202 Z" /></g></g></g><g fill="rgb(255,255,255)" fill-opacity="1.0"><g fill="rgb(255,255,255)" fill-opacity="1.0"><g fill="rgb(255,255,255)" fill-opacity="1.0"><path d="M 80.8080808080808,86.61616161616163 l -40.4040404040404,20.2020202020202 v -20.2020202020202 l 40.4040404040404,-20.2020202020202 v 20.2020202020202 Z" /></g></g></g><g fill="rgb(255,255,255)" fill-opacity="1.0"><g fill="rgb(255,255,255)" fill-opacity="1.0"><g fill="rgb(255,255,255)" fill-opacity="1.0"><path d="M 121.2121212121212,66.41414141414143 l -40.4040404040404,20.2020202020202 v -20.2020202020202 l 40.4040404040404,-20.2020202020202 v 20.2020202020202 Z" /></g></g></g><g fill="rgb(255,255,255)" fill-opacity="1.0"><g fill="rgb(255,255,255)" fill-opacity="1.0"><g fill="rgb(255,255,255)" fill-opacity="1.0"><path d="M 40.4040404040404,127.02020202020203 l -40.4040404040404,20.2020202020202 v -20.2020202020202 l 40.4040404040404,-20.2020202020202 v 20.2020202020202 Z" /></g></g></g><g fill="rgb(255,255,255)" fill-opacity="1.0"><g fill="rgb(255,255,255)" fill-opacity="1.0"><g fill="rgb(255,255,255)" fill-opacity="1.0"><path d="M 80.8080808080808,106.81818181818184 l -40.4040404040404,20.2020202020202 v -20.2020202020202 l 40.4040404040404,-20.2020202020202 v 20.2020202020202 Z" /></g></g></g><g fill="rgb(255,255,255)" fill-opacity="1.0"><g fill="rgb(255,255,255)" fill-opacity="1.0"><g fill="rgb(255,255,255)" fill-opacity="1.0"><path d="M 121.2121212121212,86.61616161616163 l -40.4040404040404,20.2020202020202 v -20.2020202020202 l 40.4040404040404,-20.2020202020202 v 20.2020202020202 Z" /></g></g></g></g><g><g fill="rgb(0,0,255)" fill-opacity="1.0"><g fill="rgb(0,0,255)" fill-opacity="1.0"><g fill="rgb(0,0,255)" fill-opacity="1.0"><path d="M 80.8080808080808,127.02020202020203 h 20.2020202020202 l -40.4040404040404,20.2020202020202 h -20.2020202020202 l 40.4040404040404,-20.2020202020202 Z" /></g></g></g><g fill="rgb(0,0,255)" fill-opacity="1.0"><g fill="rgb(0,0,255)" fill-opacity="1.0"><g fill="rgb(0,0,255)" fill-opacity="1.0"><path d="M 60.6060606060606,127.02020202020203 h 20.2020202020202 l -40.4040404040404,20.2020202020202 h -20.2020202020202 l 40.4040404040404,-20.2020202020202 Z" /></g></g></g><g fill="rgb(0,0,255)" fill-opacity="1.0"><g fill="rgb(0,0,255)" fill-opacity="1.0"><g fill="rgb(0,0,255)" fill-opacity="1.0"><path d="M 40.4040404040404,127.02020202020203 h 20.2020202020202 l -40.4040404040404,20.2020202020202 h -20.2020202020202 l 40.4040404040404,-20.2020202020202 Z" /></g></g></g><g fill="rgb(0,0,255)" fill-opacity="1.0"><g fill="rgb(0,0,255)" fill-opacity="1.0"><g fill="rgb(0,0,255)" fill-opacity="1.0"><path d="M 121.2121212121212,106.81818181818184 h 20.2020202020202 l -40.4040404040404,20.2020202020202 h -20.2020202020202 l 40.4040404040404,-20.2020202020202 Z" /></g></g></g><g fill="rgb(0,0,255)" fill-opacity="1.0"><g fill="rgb(0,0,255)" fill-opacity="1.0"><g fill="rgb(0,0,255)" fill-opacity="1.0"><path d="M 101.01010101010101,106.81818181818184 h 20.2020202020202 l -40.4040404040404,20.2020202020202 h -20.2020202020202 l 40.4040404040404,-20.2020202020202 Z" /></g></g></g><g fill="rgb(0,0,255)" fill-opacity="1.0"><g fill="rgb(0,0,255)" fill-opacity="1.0"><g fill="rgb(0,0,255)" fill-opacity="1.0"><path d="M 80.8080808080808,106.81818181818184 h 20.2020202020202 l -40.4040404040404,20.2020202020202 h -20.2020202020202 l 40.4040404040404,-20.2020202020202 Z" /></g></g></g><g fill="rgb(0,0,255)" fill-opacity="1.0"><g fill="rgb(0,0,255)" fill-opacity="1.0"><g fill="rgb(0,0,255)" fill-opacity="1.0"><path d="M 161.6161616161616,86.61616161616163 h 20.2020202020202 l -40.4040404040404,20.2020202020202 h -20.2020202020202 l 40.4040404040404,-20.2020202020202 Z" /></g></g></g><g fill="rgb(0,0,255)" fill-opacity="1.0"><g fill="rgb(0,0,255)" fill-opacity="1.0"><g fill="rgb(0,0,255)" fill-opacity="1.0"><path d="M 141.4141414141414,86.61616161616163 h 20.2020202020202 l -40.4040404040404,20.2020202020202 h -20.2020202020202 l 40.4040404040404,-20.2020202020202 Z" /></g></g></g><g fill="rgb(0,0,255)" fill-opacity="1.0"><g fill="rgb(0,0,255)" fill-opacity="1.0"><g fill="rgb(0,0,255)" fill-opacity="1.0"><path d="M 121.2121212121212,86.61616161616163 h 20.2020202020202 l -40.4040404040404,20.2020202020202 h -20.2020202020202 l 40.4040404040404,-20.2020202020202 Z" /></g></g></g></g><g><g fill="rgb(0,128,0)" fill-opacity="1.0"><g fill="rgb(0,128,0)" fill-opacity="1.0"><g fill="rgb(0,128,0)" fill-opacity="1.0"><path d="M 121.2121212121212,46.21212121212123 h 20.2020202020202 l 40.4040404040404,-20.2020202020202 h -20.2020202020202 l -40.4040404040404,20.2020202020202 Z" /></g></g></g><g fill="rgb(0,128,0)" fill-opacity="1.0"><g fill="rgb(0,128,0)" fill-opacity="1.0"><g fill="rgb(0,128,0)" fill-opacity="1.0"><path d="M 101.01010101010101,46.21212121212123 h 20.2020202020202 l 40.4040404040404,-20.2020202020202 h -20.2020202020202 l -40.4040404040404,20.2020202020202 Z" /></g></g></g><g fill="rgb(0,128,0)" fill-opacity="1.0"><g fill="rgb(0,128,0)" fill-opacity="1.0"><g fill="rgb(0,128,0)" fill-opacity="1.0"><path d="M 80.8080808080808,46.21212121212123 h 20.2020202020202 l 40.4040404040404,-20.2020202020202 h -20.2020202020202 l -40.4040404040404,20.2020202020202 Z" /></g></g></g><g fill="rgb(0,128,0)" fill-opacity="1.0"><g fill="rgb(0,128,0)" fill-opacity="1.0"><g fill="rgb(0,128,0)" fill-opacity="1.0"><path d="M 80.8080808080808,66.41414141414143 h 20.2020202020202 l 40.4040404040404,-20.2020202020202 h -20.2020202020202 l -40.4040404040404,20.2020202020202 Z" /></g></g></g><g fill="rgb(0,128,0)" fill-opacity="1.0"><g fill="rgb(0,128,0)" fill-opacity="1.0"><g fill="rgb(0,128,0)" fill-opacity="1.0"><path d="M 60.6060606060606,66.41414141414143 h 20.2020202020202 l 40.4040404040404,-20.2020202020202 h -20.2020202020202 l -40.4040404040404,20.2020202020202 Z" /></g></g></g><g fill="rgb(0,128,0)" fill-opacity="1.0"><g fill="rgb(0,128,0)" fill-opacity="1.0"><g fill="rgb(0,128,0)" fill-opacity="1.0"><path d="M 40.4040404040404,66.41414141414143 h 20.2020202020202 l 40.4040404040404,-20.2020202020202 h -20.2020202020202 l -40.4040404040404,20.2020202020202 Z" /></g></g></g><g fill="rgb(0,128,0)" fill-opacity="1.0"><g fill="rgb(0,128,0)" fill-opacity="1.0"><g fill="rgb(0,128,0)" fill-opacity="1.0"><path d="M 40.4040404040404,86.61616161616163 h 20.2020202020202 l 40.4040404040404,-20.2020202020202 h -20.2020202020202 l -40.4040404040404,20.2020202020202 Z" /></g></g></g><g fill="rgb(0,128,0)" fill-opacity="1.0"><g fill="rgb(0,128,0)" fill-opacity="1.0"><g fill="rgb(0,128,0)" fill-opacity="1.0"><path d="M 20.2020202020202,86.61616161616163 h 20.2020202020202 l 40.4040404040404,-20.2020202020202 h -20.2020202020202 l -40.4040404040404,20.2020202020202 Z" /></g></g></g><g fill="rgb(0,128,0)" fill-opacity="1.0"><g fill="rgb(0,128,0)" fill-opacity="1.0"><g fill="rgb(0,128,0)" fill-opacity="1.0"><path d="M 0.0,86.61616161616163 h 20.2020202020202 l 40.4040404040404,-20.2020202020202 h -20.2020202020202 l -40.4040404040404,20.2020202020202 Z" /></g></g></g></g><g><g fill="rgb(255,255,0)" fill-opacity="1.0"><g fill="rgb(255,255,0)" fill-opacity="1.0"><g fill="rgb(255,255,0)" fill-opacity="1.0"><path d="M 141.4141414141414,66.41414141414143 l 40.4040404040404,-20.2020202020202 v -20.2020202020202 l -40.4040404040404,20.2020202020202 v 20.2020202020202 Z" /></g></g></g><g fill="rgb(255,255,0)" fill-opacity="1.0"><g fill="rgb(255,255,0)" fill-opacity="1.0"><g fill="rgb(255,255,0)" fill-opacity="1.0"><path d="M 101.01010101010101,86.61616161616163 l 40.4040404040404,-20.2020202020202 v -20.2020202020202 l -40.4040404040404,20.2020202020202 v 20.2020202020202 Z" /></g></g></g><g fill="rgb(255,255,0)" fill-opacity="1.0"><g fill="rgb(255,255,0)" fill-opacity="1.0"><g fill="rgb(255,255,0)" fill-opacity="1.0"><path d="M 60.6060606060606,106.81818181818183 l 40.4040404040404,-20.2020202020202 v -20.2020202020202 l -40.4040404040404,20.2020202020202 v 20.2020202020202 Z" /></g></g></g><g fill="rgb(255,255,0)" fill-opacity="1.0"><g fill="rgb(255,255,0)" fill-opacity="1.0"><g fill="rgb(255,255,0)" fill-opacity="1.0"><path d="M 141.4141414141414,86.61616161616163 l 40.4040404040404,-20.2020202020202 v -20.2020202020202 l -40.4040404040404,20.2020202020202 v 20.2020202020202 Z" /></g></g></g><g fill="rgb(255,255,0)" fill-opacity="1.0"><g fill="rgb(255,255,0)" fill-opacity="1.0"><g fill="rgb(255,255,0)" fill-opacity="1.0"><path d="M 101.01010101010101,106.81818181818183 l 40.4040404040404,-20.2020202020202 v -20.2020202020202 l -40.4040404040404,20.2020202020202 v 20.2020202020202 Z" /></g></g></g><g fill="rgb(255,255,0)" fill-opacity="1.0"><g fill="rgb(255,255,0)" fill-opacity="1.0"><g fill="rgb(255,255,0)" fill-opacity="1.0"><path d="M 60.6060606060606,127.02020202020202 l 40.4040404040404,-20.2020202020202 v -20.2020202020202 l -40.4040404040404,20.2020202020202 v 20.2020202020202 Z" /></g></g></g><g fill="rgb(255,255,0)" fill-opacity="1.0"><g fill="rgb(255,255,0)" fill-opacity="1.0"><g fill="rgb(255,255,0)" fill-opacity="1.0"><path d="M 141.4141414141414,106.81818181818183 l 40.4040404040404,-20.2020202020202 v -20.2020202020202 l -40.4040404040404,20.2020202020202 v 20.2020202020202 Z" /></g></g></g><g fill="rgb(255,255,0)" fill-opacity="1.0"><g fill="rgb(255,255,0)" fill-opacity="1.0"><g fill="rgb(255,255,0)" fill-opacity="1.0"><path d="M 101.01010101010101,127.02020202020202 l 40.4040404040404,-20.2020202020202 v -20.2020202020202 l -40.4040404040404,20.2020202020202 v 20.2020202020202 Z" /></g></g></g><g fill="rgb(255,255,0)" fill-opacity="1.0"><g fill="rgb(255,255,0)" fill-opacity="1.0"><g fill="rgb(255,255,0)" fill-opacity="1.0"><path d="M 60.6060606060606,147.22222222222223 l 40.4040404040404,-20.2020202020202 v -20.2020202020202 l -40.4040404040404,20.2020202020202 v 20.2020202020202 Z" /></g></g></g></g><g><g fill="rgb(255,165,0)" fill-opacity="1.0"><g fill="rgb(255,165,0)" fill-opacity="1.0"><g fill="rgb(255,165,0)" fill-opacity="1.0"><path d="M 40.4040404040404,106.81818181818183 h 20.2020202020202 v -20.2020202020202 h -20.2020202020202 v 20.2020202020202 Z" /></g></g></g><g fill="rgb(255,165,0)" fill-opacity="1.0"><g fill="rgb(255,165,0)" fill-opacity="1.0"><g fill="rgb(255,165,0)" fill-opacity="1.0"><path d="M 20.2020202020202,106.81818181818183 h 20.2020202020202 v -20.2020202020202 h -20.2020202020202 v 20.2020202020202 Z" /></g></g></g><g fill="rgb(255,165,0)" fill-opacity="1.0"><g fill="rgb(255,165,0)" fill-opacity="1.0"><g fill="rgb(255,165,0)" fill-opacity="1.0"><path d="M 0.0,106.81818181818183 h 20.2020202020202 v -20.2020202020202 h -20.2020202020202 v 20.2020202020202 Z" /></g></g></g><g fill="rgb(255,165,0)" fill-opacity="1.0"><g fill="rgb(255,165,0)" fill-opacity="1.0"><g fill="rgb(255,165,0)" fill-opacity="1.0"><path d="M 40.4040404040404,127.02020202020202 h 20.2020202020202 v -20.2020202020202 h -20.2020202020202 v 20.2020202020202 Z" /></g></g></g><g fill="rgb(255,165,0)" fill-opacity="1.0"><g fill="rgb(255,165,0)" fill-opacity="1.0"><g fill="rgb(255,165,0)" fill-opacity="1.0"><path d="M 20.2020202020202,127.02020202020202 h 20.2020202020202 v -20.2020202020202 h -20.2020202020202 v 20.2020202020202 Z" /></g></g></g><g fill="rgb(255,165,0)" fill-opacity="1.0"><g fill="rgb(255,165,0)" fill-opacity="1.0"><g fill="rgb(255,165,0)" fill-opacity="1.0"><path d="M 0.0,127.02020202020202 h 20.2020202020202 v -20.2020202020202 h -20.2020202020202 v 20.2020202020202 Z" /></g></g></g><g fill="rgb(255,165,0)" fill-opacity="1.0"><g fill="rgb(255,165,0)" fill-opacity="1.0"><g fill="rgb(255,165,0)" fill-opacity="1.0"><path d="M 40.4040404040404,147.22222222222223 h 20.2020202020202 v -20.2020202020202 h -20.2020202020202 v 20.2020202020202 Z" /></g></g></g><g fill="rgb(255,165,0)" fill-opacity="1.0"><g fill="rgb(255,165,0)" fill-opacity="1.0"><g fill="rgb(255,165,0)" fill-opacity="1.0"><path d="M 20.2020202020202,147.22222222222223 h 20.2020202020202 v -20.2020202020202 h -20.2020202020202 v 20.2020202020202 Z" /></g></g></g><g fill="rgb(255,165,0)" fill-opacity="1.0"><g fill="rgb(255,165,0)" fill-opacity="1.0"><g fill="rgb(255,165,0)" fill-opacity="1.0"><path d="M 0.0,147.22222222222223 h 20.2020202020202 v -20.2020202020202 h -20.2020202020202 v 20.2020202020202 Z" /></g></g></g></g></g></g></g></svg>