<?xml version="1.0" encoding="UTF-8"?>
<!DOCTYPE svg PUBLIC "-//W3C//DTD SVG 1.1//EN"
    "http://www.w3.org/Graphics/SVG/1.1/DTD/svg11.dtd">
<svg xmlns="http://www.w3.org/2000/svg" xmlns:xlink="http://www.w3.org/1999/xlink" version="1.1" width="150.0" height="150.0" font-size="1" viewBox="0 0 150 150" stroke="rgb(0,0,0)" stroke-opacity="1"><g><g fill="rgb(0,0,0)" fill-opacity="0.0"><g stroke="rgb(0,0,0)" stroke-opacity="1.0" stroke-width="0.5887840577551898" stroke-linecap="butt" stroke-linejoin="miter" font-size="1.0em" stroke-miterlimit="10.0"><g><g fill="rgb(255,0,0)" fill-opacity="1.0"><g fill="rgb(255,0,0)" fill-opacity="1.0"><g fill="rgb(255,0,0)" fill-opacity="1.0"><path d="M 110.18518518518518,74.07407407407408 h 37.03703703703704 v 37.03703703703704 h -37.03703703703704 v -37.03703703703704 Z" /></g></g></g><g fill="rgb(255,255,0)" fill-opacity="1.0"><g fill="rgb(255,255,0)" fill-opacity="1.0"><g fill="rgb(255,255,0)" fill-opacity="1.0"><path d="M 73.14814814814814,74.07407407407408 h 37.03703703703704 v 37.03703703703704 h -37.03703703703704 v -37.03703703703704 Z" /></g></g></g><g fill="rgb(255,255,255)" fill-opacity="1.0"><g fill="rgb(255,255,255)" fill-opacity="1.0"><g fill="rgb(255,255,255)" fill-opacity="1.0"><path d="M 36.1111111111111,74.07407407407408 h 37.03703703703704 v 37.03703703703704 h -37.03703703703704 v -37.03703703703704 Z" /></g></g></g><g fill="rgb(255,0,0)" fill-opacity="1.0"><g fill="rgb(255,0,0)" fill-opacity="1.0"><g fill="rgb(255,0,0)" fill-opacity="1.0"><path d="M 110.18518518518518,37.03703703703704 h 37.03703703703704 v 37.03703703703704 h -37.03703703703704 v -37.03703703703704 Z" /></g></g></g><g fill="rgb(255,0,0)" fill-opacity="1.0"><g fill="rgb(255,0,0)" fill-opacity="1.0"><g fill="rgb(255,0,0)" fill-opacity="1.0"><path d="M 73.14814814814814,37.03703703703704 h 37.03703703703704 v 37.03703703703704 h -37.03703703703704 v -37.03703703703704 Z" /></g></g></g><g fill="rgb(255,0,0)" fill-opacity="1.0"><g fill="rgb(255,0,0)" fill-opacity="1.0"><g fill="rgb(255,0,0)" fill-opacity="1.0"><path d="M 36.1111111111111,37.03703703703704 h 37.03703703703704 v 37.03703703703704 h -37.03703703703704 v -37.03703703703704 Z" /></g></g></g><g fill="rgb(255,0,0)" fill-opacity="1.0"><g fill="rgb(255,0,0)" fill-opacity="1.0"><g fill="rgb(255,0,0)" fill-opacity="1.0"><path d="M 110.18518518518518,0.0 h 37.03703703703704 v 37.03703703703704 h -37.03703703703704 v -37.03703703703704 Z" /></g></g></g><g fill="rgb(255,0,0)" fill-opacity="1.0"><g fill="rgb(255,0,0)" fill-opacity="1.0"><g fill="rgb(255,0,0)" fill-opacity="1.0"><path d="M 73.14814814814814,0.0 h 37.03703703703704 v 37.03703703703704 h -37.03703703703704 v -37.03703703703704 Z" /></g></g></g><g fill="rgb(255,0,0)" fill-opacity="1.0"><g fill="rgb(255,0,0)" fill-opacity="1.0"><g fill="rgb(255,0,0)" fill-opacity="1.0"><path d="M 36.1111111111111,0.0 h 37.03703703703704 v 37.03703703703704 h -37.03703703703704 v -37.03703703703704 Z" /></g></g></g></g><g><g fill="rgb(255,165,0)" fill-opacity="1.0"><g fill="rgb(255,165,0)" fill-opacity="1.0"><g fill="rgb(255,165,0)" fill-opacity="1.0"><path d="M 87.96296296296295,137.03703703703704 h 37.03703703703704 l -11.111111111111105,12.962962962962958 h -37.03703703703704 l 11.111111111111105,-12.962962962962958 Z" /></g></g></g><g fill="rgb(0,0,255)" fill-opacity="1.0"><g fill="rgb(0,0,255)" fill-opacity="1.0"><g fill="rgb(0,0,255)" fill-opacity="1.0"><path d="M 50.92592592592592,137.03703703703704 h 37.03703703703703 l -11.111111111111105,12.962962962962958 h -37.03703703703704 l 11.111111111111109,-12.962962962962958 Z" /></g></g></g><g fill="rgb(0,0,255)" fill-opacity="1.0"><g fill="rgb(0,0,255)" fill-opacity="1.0"><g fill="rgb(0,0,255)" fill-opacity="1.0"><path d="M 13.888888888888879,137.03703703703704 h 37.03703703703704 l -11.111111111111109,12.962962962962958 h -37.03703703703704 l 11.111111111111109,-12.962962962962958 Z" /></g></g></g><g fill="rgb(0,0,255)" fill-opacity="1.0"><g fill="rgb(0,0,255)" fill-opacity="1.0"><g fill="rgb(0,0,255)" fill-opacity="1.0"><path d="M 99.07407407407406,124.07407407407408 h 37.037037037037045 l -11.111111111111121,12.962962962962962 h -37.03703703703704 l 11.111111111111112,-12.962962962962962 Z" /></g></g></g><g fill="rgb(0,0,255)" fill-opacity="1.0"><g fill="rgb(0,0,255)" fill-opacity="1.0"><g fill="rgb(0,0,255)" fill-opacity="1.0"><path d="M 62.037037037037024,124.07407407407408 h 37.03703703703704 l -11.111111111111112,12.962962962962962 h -37.03703703703703 l 11.111111111111109,-12.962962962962962 Z" /></g></g></g><g fill="rgb(0,0,255)" fill-opacity="1.0"><g fill="rgb(0,0,255)" fill-opacity="1.0"><g fill="rgb(0,0,255)" fill-opacity="1.0"><path d="M 24.99999999999999,124.07407407407408 h 37.03703703703704 l -11.111111111111109,12.962962962962962 h -37.03703703703704 l 11.11111111111111,-12.962962962962962 Z" /></g></g></g><g fill="rgb(0,0,255)" fill-opacity="1.0"><g fill="rgb(0,0,255)" fill-opacity="1.0"><g fill="rgb(0,0,255)" fill-opacity="1.0"><path d="M 110.18518518518518,111.11111111111111 h 37.03703703703704 l -11.111111111111105,12.962962962962962 h -37.037037037037045 l 11.111111111111112,-12.962962962962962 Z" /></g></g></g><g fill="rgb(0,0,255)" fill-opacity="1.0"><g fill="rgb(0,0,255)" fill-opacity="1.0"><g fill="rgb(0,0,255)" fill-opacity="1.0"><path d="M 73.14814814814814,111.11111111111111 h 37.03703703703704 l -11.111111111111112,12.962962962962962 h -37.03703703703704 l 11.111111111111112,-12.962962962962962 Z" /></g></g></g><g fill="rgb(0,0,255)" fill-opacity="1.0"><g fill="rgb(0,0,255)" fill-opacity="1.0"><g fill="rgb(0,0,255)" fill-opacity="1.0"><path d="M 36.1111111111111,111.11111111111111 h 37.03703703703704 l -11.111111111111112,12.962962962962962 h -37.03703703703704 l 11.11111111111111,-12.962962962962962 Z" /></g></g></g></g><g><g fill="rgb(255,255,255)" fill-opacity="1.0"><g fill="rgb(255,255,255)" fill-opacity="1.0"><g fill="rgb(255,255,255)" fill-opacity="1.0"><path d="M 13.888888888888879,62.96296296296296 l -11.111111111111109,12.962962962962958 v -37.03703703703704 l 11.111111111111109,-12.96296296296295 v 37.03703703703703 Z" /></g></g></g><g fill="rgb(255,255,255)" fill-opacity="1.0"><g fill="rgb(255,255,255)" fill-opacity="1.0"><g fill="rgb(255,255,255)" fill-opacity="1.0"><path d="M 24.99999999999999,50.00000000000001 l -11.11111111111111,12.962962962962958 v -37.03703703703703 l 11.11111111111111,-12.962962962962967 v 37.03703703703704 Z" /></g></g></g><g fill="rgb(0,128,0)" fill-opacity="1.0"><g fill="rgb(0,128,0)" fill-opacity="1.0"><g fill="rgb(0,128,0)" fill-opacity="1.0"><path d="M 36.1111111111111,37.03703703703704 l -11.11111111111111,12.962962962962967 v -37.03703703703704 l 11.11111111111111,-12.962962962962967 v 37.03703703703704 Z" /></g></g></g><g fill="rgb(255,255,255)" fill-opacity="1.0"><g fill="rgb(255,255,255)" fill-opacity="1.0"><g fill="rgb(255,255,255)" fill-opacity="1.0"><path d="M 13.888888888888879,100.0 l -11.111111111111109,12.962962962962958 v -37.03703703703704 l 11.111111111111109,-12.962962962962958 v 37.03703703703704 Z" /></g></g></g><g fill="rgb(255,255,255)" fill-opacity="1.0"><g fill="rgb(255,255,255)" fill-opacity="1.0"><g fill="rgb(255,255,255)" fill-opacity="1.0"><path d="M 24.99999999999999,87.03703703703704 l -11.11111111111111,12.962962962962962 v -37.03703703703704 l 11.11111111111111,-12.962962962962958 v 37.03703703703703 Z" /></g></g></g><g fill="rgb(255,255,255)" fill-opacity="1.0"><g fill="rgb(255,255,255)" fill-opacity="1.0"><g fill="rgb(255,255,255)" fill-opacity="1.0"><path d="M 36.1111111111111,74.07407407407408 l -11.11111111111111,12.962962962962962 v -37.03703703703703 l 11.11111111111111,-12.962962962962967 v 37.03703703703704 Z" /></g></g></g><g fill="rgb(255,255,255)" fill-opacity="1.0"><g fill="rgb(255,255,255)" fill-opacity="1.0"><g fill="rgb(255,255,255)" fill-opacity="1.0"><path d="M 13.888888888888879,137.03703703703704 l -11.111111111111109,12.962962962962958 v -37.03703703703704 l 11.111111111111109,-12.962962962962958 v 37.03703703703704 Z" /></g></g></g><g fill="rgb(255,255,255)" fill-opacity="1.0"><g fill="rgb(255,255,255)" fill-opacity="1.0"><g fill="rgb(255,255,255)" fill-opacity="1.0"><path d="M 24.99999999999999,124.07407407407408 l -11.11111111111111,12.962962962962962 v -37.03703703703704 l 11.11111111111111,-12.962962962962962 v 37.03703703703704 Z" /></g></g></g><g fill="rgb(255,255,255)" fill-opacity="1.0"><g fill="rgb(255,255,255)" fill-opacity="1.0"><g fill="rgb(255,255,255)" fill-opacity="1.0"><path d="M 36.1111111111111,111.11111111111111 l -11.11111111111111,12.962962962962962 v -37.03703703703704 l 11.11111111111111,-12.962962962962962 v 37.03703703703704 Z" /></g></g></g></g><g><g fill="rgb(255,0,0)" fill-opacity="1.0"><g fill="rgb(255,0,0)" fill-opacity="1.0"><g fill="rgb(255,0,0)" fill-opacity="1.0"><path d="M 136.11111111111111,49.999999999999986 l 11.111111111111109,-12.96296296296295 v -37.03703703703704 l -11.111111111111109,12.96296296296295 v 37.03703703703704 Z" /></g></g></g><g fill="rgb(255,0,0)" fill-opacity="1.0"><g fill="rgb(255,0,0)" fill-opacity="1.0"><g fill="rgb(255,0,0)" fill-opacity="1.0"><path d="M 125.0,62.96296296296296 l 11.11111111111111,-12.962962962962967 v -37.03703703703704 l -11.11111111111111,12.962962962962967 v 37.03703703703704 Z" /></g></g></g><g fill="rgb(0,0,255)" fill-opacity="1.0"><g fill="rgb(0,0,255)" fill-opacity="1.0"><g fill="rgb(0,0,255)" fill-opacity="1.0"><path d="M 113.88888888888889,75.92592592592592 l 11.11111111111111,-12.962962962962967 v -37.03703703703704 l -11.11111111111111,12.962962962962967 v 37.03703703703704 Z" /></g></g></g><g fill="rgb(255,255,0)" fill-opacity="1.0"><g fill="rgb(255,255,0)" fill-opacity="1.0"><g fill="rgb(255,255,0)" fill-opacity="1.0"><path d="M 136.11111111111111,87.03703703703704 l 11.111111111111109,-12.962962962962958 v -37.03703703703704 l -11.111111111111109,12.96296296296295 v 37.037037037037045 Z" /></g></g></g><g fill="rgb(255,255,0)" fill-opacity="1.0"><g fill="rgb(255,255,0)" fill-opacity="1.0"><g fill="rgb(255,255,0)" fill-opacity="1.0"><path d="M 125.0,100.0 l 11.11111111111111,-12.962962962962958 v -37.037037037037045 l -11.11111111111111,12.962962962962967 v 37.03703703703704 Z" /></g></g></g><g fill="rgb(255,255,0)" fill-opacity="1.0"><g fill="rgb(255,255,0)" fill-opacity="1.0"><g fill="rgb(255,255,0)" fill-opacity="1.0"><path d="M 113.88888888888889,112.96296296296296 l 11.11111111111111,-12.962962962962967 v -37.03703703703704 l -11.11111111111111,12.962962962962967 v 37.03703703703704 Z" /></g></g></g><g fill="rgb(255,255,0)" fill-opacity="1.0"><g fill="rgb(255,255,0)" fill-opacity="1.0"><g fill="rgb(255,255,0)" fill-opacity="1.0"><path d="M 136.11111111111111,124.07407407407408 l 11.111111111111109,-12.962962962962958 v -37.03703703703704 l -11.111111111111109,12.962962962962958 v 37.03703703703704 Z" /></g></g></g><g fill="rgb(255,255,0)" fill-opacity="1.0"><g fill="rgb(255,255,0)" fill-opacity="1.0"><g fill="rgb(255,255,0)" fill-opacity="1.0"><path d="M 125.0,137.03703703703704 l 11.11111111111111,-12.962962962962962 v -37.03703703703704 l -11.11111111111111,12.962962962962958 v 37.03703703703704 Z" /></g></g></g><g fill="rgb(255,255,0)" fill-opacity="1.0"><g fill="rgb(255,255,0)" fill-opacity="1.0"><g fill="rgb(255,255,0)" fill-opacity="1.0"><path d="M 113.88888888888889,150.0 l 11.11111111111111,-12.962962962962962 v -37.03703703703704 l -11.11111111111111,12.962962962962967 v 37.03703703703704 Z" /></g></g></g></g><g><g fill="rgb(0,128,0)" fill-opacity="1.0"><g fill="rgb(0,128,0)" fill-opacity="1.0"><g fill="rgb(0,128,0)" fill-opacity="1.0"><path d="M 99.07407407407408,12.962962962962962 h 37.03703703703704 l 11.111111111111105,-12.962962962962958 h -37.03703703703704 l -11.111111111111105,12.962962962962958 Z" /></g></g></g><g fill="rgb(255,165,0)" fill-opacity="1.0"><g fill="rgb(255,165,0)" fill-opacity="1.0"><g fill="rgb(255,165,0)" fill-opacity="1.0"><path d="M 62.03703703703704,12.962962962962962 h 37.03703703703704 l 11.111111111111105,-12.962962962962958 h -37.03703703703704 l -11.111111111111105,12.962962962962958 Z" /></g></g></g><g fill="rgb(255,255,0)" fill-opacity="1.0"><g fill="rgb(255,255,0)" fill-opacity="1.0"><g fill="rgb(255,255,0)" fill-opacity="1.0"><path d="M 24.999999999999993,12.962962962962962 h 37.03703703703704 l 11.111111111111105,-12.962962962962958 h -37.03703703703704 l -11.111111111111109,12.962962962962958 Z" /></g></g></g><g fill="rgb(0,128,0)" fill-opacity="1.0"><g fill="rgb(0,128,0)" fill-opacity="1.0"><g fill="rgb(0,128,0)" fill-opacity="1.0"><path d="M 87.96296296296295,25.925925925925924 h 37.03703703703704 l 11.111111111111121,-12.962962962962962 h -37.03703703703704 l -11.111111111111121,12.962962962962962 Z" /></g></g></g><g fill="rgb(0,128,0)" fill-opacity="1.0"><g fill="rgb(0,128,0)" fill-opacity="1.0"><g fill="rgb(0,128,0)" fill-opacity="1.0"><path d="M 50.925925925925924,25.925925925925924 h 37.03703703703703 l 11.111111111111121,-12.962962962962962 h -37.03703703703704 l -11.111111111111112,12.962962962962962 Z" /></g></g></g><g fill="rgb(0,128,0)" fill-opacity="1.0"><g fill="rgb(0,128,0)" fill-opacity="1.0"><g fill="rgb(0,128,0)" fill-opacity="1.0"><path d="M 13.888888888888882,25.925925925925924 h 37.03703703703704 l 11.111111111111112,-12.962962962962962 h -37.03703703703704 l -11.11111111111111,12.962962962962962 Z" /></g></g></g><g fill="rgb(255,255,0)" fill-opacity="1.0"><g fill="rgb(255,255,0)" fill-opacity="1.0"><g fill="rgb(255,255,0)" fill-opacity="1.0"><path d="M 76.85185185185185,38.888888888888886 h 37.03703703703704 l 11.111111111111105,-12.962962962962962 h -37.03703703703704 l -11.111111111111105,12.962962962962962 Z" /></g></g></g><g fill="rgb(0,128,0)" fill-opacity="1.0"><g fill="rgb(0,128,0)" fill-opacity="1.0"><g fill="rgb(0,128,0)" fill-opacity="1.0"><path d="M 39.81481481481481,38.888888888888886 h 37.03703703703704 l 11.111111111111105,-12.962962962962962 h -37.03703703703703 l -11.111111111111112,12.962962962962962 Z" /></g></g></g><g fill="rgb(0,128,0)" fill-opacity="1.0"><g fill="rgb(0,128,0)" fill-opacity="1.0"><g fill="rgb(0,128,0)" fill-opacity="1.0"><path d="M 2.7777777777777715,38.888888888888886 h 37.03703703703704 l 11.111111111111112,-12.962962962962962 h -37.03703703703704 l -11.11111111111111,12.962962962962962 Z" /></g></g></g></g><g><g fill="rgb(255,165,0)" fill-opacity="1.0"><g fill="rgb(255,165,0)" fill-opacity="1.0"><g fill="rgb(255,165,0)" fill-opacity="1.0"><path d="M 76.85185185185185,75.92592592592592 h 37.03703703703704 v -37.03703703703704 h -37.03703703703704 v 37.03703703703704 Z" /></g></g></g><g fill="rgb(255,165,0)" fill-opacity="1.0"><g fill="rgb(255,165,0)" fill-opacity="1.0"><g fill="rgb(255,165,0)" fill-opacity="1.0"><path d="M 39.81481481481481,75.92592592592592 h 37.03703703703704 v -37.03703703703704 h -37.03703703703704 v 37.03703703703704 Z" /></g></g></g><g fill="rgb(255,165,0)" fill-opacity="1.0"><g fill="rgb(255,165,0)" fill-opacity="1.0"><g fill="rgb(255,165,0)" fill-opacity="1.0"><path d="M 2.7777777777777715,75.92592592592592 h 37.03703703703704 v -37.03703703703704 h -37.03703703703704 v 37.03703703703704 Z" /></g></g></g><g fill="rgb(0,128,0)" fill-opacity="1.0"><g fill="rgb(0,128,0)" fill-opacity="1.0"><g fill="rgb(0,128,0)" fill-opacity="1.0"><path d="M 76.85185185185185,112.96296296296296 h 37.03703703703704 v -37.03703703703704 h -37.03703703703704 v 37.03703703703704 Z" /></g></g></g><g fill="rgb(255,165,0)" fill-opacity="1.0"><g fill="rgb(255,165,0)" fill-opacity="1.0"><g fill="rgb(255,165,0)" fill-opacity="1.0"><path d="M 39.81481481481481,112.96296296296296 h 37.03703703703704 v -37.03703703703704 h -37.03703703703704 v 37.03703703703704 Z" /></g></g></g><g fill="rgb(255,165,0)" fill-opacity="1.0"><g fill="rgb(255,165,0)" fill-opacity="1.0"><g fill="rgb(255,165,0)" fill-opacity="1.0"><path d="M 2.7777777777777715,112.96296296296296 h 37.03703703703704 v -37.03703703703704 h -37.03703703703704 v 37.03703703703704 Z" /></g></g></g><g fill="rgb(0,128,0)" fill-opacity="1.0"><g fill="rgb(0,128,0)" fill-opacity="1.0"><g fill="rgb(0,128,0)" fill-opacity="1.0"><path d="M 76.85185185185185,150.0 h 37.03703703703704 v -37.03703703703704 h -37.03703703703704 v 37.03703703703704 Z" /></g></g></g><g fill="rgb(255,165,0)" fill-opacity="1.0"><g fill="rgb(255,165,0)" fill-opacity="1.0"><g fill="rgb(255,165,0)" fill-opacity="1.0"><path d="M 39.81481481481481,150.0 h 37.03703703703704 v -37.03703703703704 h -37.03703703703704 v 37.03703703703704 Z" /></g></g></g><g fill="rgb(255,165,0)" fill-opacity="1.0"><g fill="rgb(255,165,0)" fill-opacity="1.0"><g fill="rgb(255,165,0)" fill-opacity="1.0"><path d="M 2.7777777777777715,150.0 h 37.03703703703704 v -37.03703703703704 h -37.03703703703704 v 37.03703703703704 Z" /></g></g></g></g></g></g></g></svg>